<svg width="14" height="14" viewBox="0 0 14 14" fill="none" xmlns="http://www.w3.org/2000/svg">
<path d="M13.6563 6.32139H3.04292L9.39537 0.892822C9.49695 0.805322 9.43527 0.642822 9.30104 0.642822H7.6957C7.62495 0.642822 7.55784 0.667822 7.50523 0.712465L0.650329 6.56782C0.587546 6.6214 0.537194 6.68763 0.502686 6.76204C0.468177 6.83644 0.450317 6.91728 0.450317 6.99907C0.450317 7.08087 0.468177 7.1617 0.502686 7.23611C0.537194 7.31051 0.587546 7.37675 0.650329 7.43032L7.54514 13.3214C7.57235 13.3446 7.605 13.3571 7.63947 13.3571H9.29923C9.43346 13.3571 9.49513 13.1928 9.39355 13.1071L3.04292 7.67854H13.6563C13.7361 7.67854 13.8014 7.61425 13.8014 7.53568V6.46425C13.8014 6.38568 13.7361 6.32139 13.6563 6.32139Z" fill="black" fill-opacity="0.85"/>
</svg>
